<svg id="图层_1" data-name="图层 1" xmlns="http://www.w3.org/2000/svg" viewBox="0 0 65.03 15.85"><defs><style>.cls-1{fill:#231815;}.cls-2{fill:#f5f5f5;}</style></defs><title>电源模块</title><path class="cls-1" d="M308.06,465.53a.77.77,0,1,1,.77-.77A.77.77,0,0,1,308.06,465.53Z" transform="translate(-269.35 -451.47)"/><path class="cls-1" d="M308.06,454.82a.77.77,0,0,1,0-1.54.77.77,0,1,1,0,1.54Z" transform="translate(-269.35 -451.47)"/><path class="cls-1" d="M295.38,467.32v-15.8h14.79v15.8Zm.13-15.67v15.54H310V451.65Z" transform="translate(-269.35 -451.47)"/><path class="cls-1" d="M297.1,467.32v-3.95h7.45v3.95Zm.12-3.82v3.69h7.2V463.5Z" transform="translate(-269.35 -451.47)"/><path class="cls-1" d="M304.42,467.32v-3.7h.74v.3a.24.24,0,0,0,.25.25h.35v1.34h-.35a.29.29,0,0,0-.18.07.26.26,0,0,0-.07.19v.85a.69.69,0,0,1-.21.49.7.7,0,0,1-.4.2h-.13Zm.13-3.58v3.45a.53.53,0,0,0,.31-.17.54.54,0,0,0,.17-.4v-.85a.39.39,0,0,1,.11-.27.35.35,0,0,1,.27-.11h.22V464.3h-.22a.38.38,0,0,1-.38-.38v-.18Z" transform="translate(-269.35 -451.47)"/><path class="cls-1" d="M295.88,465.51v-1.34h.36a.26.26,0,0,0,.18-.07.29.29,0,0,0,.07-.18v-.3h.73v3.7h-.12a.64.64,0,0,1-.4-.2.65.65,0,0,1-.21-.49v-.85a.32.32,0,0,0-.07-.19.31.31,0,0,0-.18-.07Zm.13-1.21v1.09h.23a.36.36,0,0,1,.27.11.39.39,0,0,1,.11.27v.85a.58.58,0,0,0,.16.4.59.59,0,0,0,.32.17v-3.45h-.48v.18a.36.36,0,0,1-.12.27.36.36,0,0,1-.26.11Z" transform="translate(-269.35 -451.47)"/><path class="cls-1" d="M299.08,463.5v-1.29h.39v1.29Zm.13-1.17v1h.13v-1Z" transform="translate(-269.35 -451.47)"/><path class="cls-1" d="M298.31,463.5v-1.29h.38v1.29Zm.12-1.17v1h.14v-1Z" transform="translate(-269.35 -451.47)"/><path class="cls-1" d="M297.53,463.5v-1.29h.39v1.29Zm.13-1.17v1h.13v-1Z" transform="translate(-269.35 -451.47)"/><path class="cls-1" d="M301.4,463.5v-1.29h.39v1.29Zm.13-1.17v1h.13v-1Z" transform="translate(-269.35 -451.47)"/><path class="cls-1" d="M300.63,463.5v-1.29H301v1.29Zm.13-1.17v1h.13v-1Z" transform="translate(-269.35 -451.47)"/><path class="cls-1" d="M299.85,463.5v-1.29h.39v1.29Zm.13-1.17v1h.14v-1Z" transform="translate(-269.35 -451.47)"/><path class="cls-1" d="M303.73,463.5v-1.29h.38v1.29Zm.12-1.17v1H304v-1Z" transform="translate(-269.35 -451.47)"/><path class="cls-1" d="M303,463.5v-1.29h.39v1.29Zm.13-1.17v1h.13v-1Z" transform="translate(-269.35 -451.47)"/><path class="cls-1" d="M302.18,463.5v-1.29h.39v1.29Zm.13-1.17v1h.13v-1Z" transform="translate(-269.35 -451.47)"/><path class="cls-1" d="M297.53,467.32v-.66h6.59v.66Zm.13-.53v.4H304v-.4Z" transform="translate(-269.35 -451.47)"/><rect class="cls-1" x="28.83" y="15.25" width="0.13" height="0.53"/><rect class="cls-1" x="28.18" y="15.25" width="0.13" height="0.53"/><rect class="cls-1" x="29.48" y="15.25" width="0.13" height="0.53"/><rect class="cls-1" x="30.12" y="15.25" width="0.12" height="0.53"/><rect class="cls-1" x="30.77" y="15.25" width="0.13" height="0.53"/><rect class="cls-1" x="31.41" y="15.25" width="0.13" height="0.53"/><rect class="cls-1" x="32.06" y="15.25" width="0.12" height="0.53"/><rect class="cls-1" x="32.7" y="15.25" width="0.13" height="0.53"/><rect class="cls-1" x="33.35" y="15.25" width="0.13" height="0.53"/><rect class="cls-1" x="34" y="15.25" width="0.13" height="0.53"/><rect class="cls-1" x="34.64" y="15.25" width="0.13" height="0.53"/><path class="cls-1" d="M298.82,458.93v-2.82h6v2.82Zm.13-2.69v2.57h5.72v-2.57Z" transform="translate(-269.35 -451.47)"/><path class="cls-1" d="M297.35,460.77a.67.67,0,1,1,1.34,0,.67.67,0,1,1-1.34,0Zm1.22,0a.55.55,0,1,0-.55.55A.55.55,0,0,0,298.57,460.77Z" transform="translate(-269.35 -451.47)"/><path class="cls-1" d="M300,460.77a.68.68,0,0,1,.67-.68.69.69,0,0,1,.68.68.68.68,0,0,1-.68.67A.67.67,0,0,1,300,460.77Zm1.22,0a.55.55,0,1,0-.55.55A.55.55,0,0,0,301.26,460.77Z" transform="translate(-269.35 -451.47)"/><path class="cls-1" d="M302.73,460.77a.68.68,0,1,1,1.35,0,.68.68,0,0,1-1.35,0Zm1.22,0a.55.55,0,1,0-.54.55A.55.55,0,0,0,304,460.77Z" transform="translate(-269.35 -451.47)"/><path class="cls-1" d="M296.88,460v-3h1.2v3Zm.12-2.91v2.78h1v-2.78Z" transform="translate(-269.35 -451.47)"/><rect class="cls-1" x="27.59" y="6.19" width="1.08" height="1.58"/><path class="cls-1" d="M296.33,455.63v-1.58H297v1.58Zm.13-1.46v1.33h.42v-1.33Z" transform="translate(-269.35 -451.47)"/><rect class="cls-1" x="27.05" y="2.97" width="0.54" height="0.79"/><path class="cls-1" d="M297.3,455.63v-1.58H298v1.58Zm.12-1.46v1.33h.42v-1.33Z" transform="translate(-269.35 -451.47)"/><rect class="cls-1" x="28.01" y="2.97" width="0.54" height="0.79"/><path class="cls-1" d="M298.26,455.63v-1.58h.66v1.58Zm.12-1.46v1.33h.41v-1.33Z" transform="translate(-269.35 -451.47)"/><rect class="cls-1" x="28.97" y="2.97" width="0.54" height="0.79"/><path class="cls-1" d="M299.22,455.63v-1.58h.66v1.58Zm.12-1.46v1.33h.41v-1.33Z" transform="translate(-269.35 -451.47)"/><rect class="cls-1" x="29.93" y="2.97" width="0.54" height="0.79"/><path class="cls-1" d="M300.17,455.63v-1.58h.67v1.58Zm.13-1.46v1.33h.41v-1.33Z" transform="translate(-269.35 -451.47)"/><rect class="cls-1" x="30.89" y="2.97" width="0.54" height="0.79"/><path class="cls-1" d="M301.13,455.63v-1.58h.67v1.58Zm.13-1.46v1.33h.41v-1.33Z" transform="translate(-269.35 -451.47)"/><rect class="cls-1" x="31.85" y="2.97" width="0.54" height="0.79"/><path class="cls-1" d="M302.78,455.63V453.4H304v2.23Zm.13-2.11v2h1v-2Z" transform="translate(-269.35 -451.47)"/><rect class="cls-1" x="33.5" y="2.47" width="1.12" height="1.14"/><path class="cls-1" d="M303.9,454.13v-.38h.76v.38Zm.13-.25V454h.5v-.12Z" transform="translate(-269.35 -451.47)"/><path class="cls-1" d="M303.9,455.28v-.38h.76v.38Z" transform="translate(-269.35 -451.47)"/><path class="cls-1" d="M302.15,454.13v-.38h.76v.38Zm.13-.25V454h.5v-.12Z" transform="translate(-269.35 -451.47)"/><path class="cls-1" d="M302.15,454.7v-.37h.76v.37Zm.13-.25v.13h.5v-.13Z" transform="translate(-269.35 -451.47)"/><path class="cls-1" d="M302.15,455.28v-.38h.76v.38Zm.13-.26v.13h.5V455Z" transform="translate(-269.35 -451.47)"/><path class="cls-1" d="M305.32,461.36v-4h4.55v4Zm.13-3.86v3.73h4.3V457.5Z" transform="translate(-269.35 -451.47)"/><rect class="cls-1" x="36.04" y="7.04" width="4.42" height="1.71"/><path class="cls-1" d="M306,467.32v-5.11h4.22v5.11Zm.13-5v4.86h4v-4.86Z" transform="translate(-269.35 -451.47)"/><path class="cls-1" d="M306,456.67v-5.12h4.22v5.12Zm.13-5v4.86h4v-4.86Z" transform="translate(-269.35 -451.47)"/><path class="cls-1" d="M306.88,454.11a1.19,1.19,0,1,1,1.18,1.19A1.18,1.18,0,0,1,306.88,454.11Zm2.24,0a1.06,1.06,0,1,0-1.06,1.06A1.06,1.06,0,0,0,309.12,454.11Z" transform="translate(-269.35 -451.47)"/><path class="cls-1" d="M306.88,464.76a1.19,1.19,0,1,1,1.18,1.19A1.18,1.18,0,0,1,306.88,464.76Zm2.24,0a1.06,1.06,0,1,0-1.06,1.06A1.06,1.06,0,0,0,309.12,464.76Z" transform="translate(-269.35 -451.47)"/><path class="cls-1" d="M295.5,451.58V467.3H289V451.58Zm-.19,15.53V451.76h-6.1v15.35Z" transform="translate(-269.35 -451.47)"/><path class="cls-1" d="M294.39,458.37v8.68h-4.13v-8.68Zm-.18,8.5v-8.32h-3.77v8.32Z" transform="translate(-269.35 -451.47)"/><path class="cls-1" d="M289.21,459.86v6.94h-3.79a1.38,1.38,0,0,1-1.39-1.38v-5.56ZM289,460h-4.81v5.38a1.2,1.2,0,0,0,1.2,1.2H289Z" transform="translate(-269.35 -451.47)"/><path class="cls-1" d="M285.42,452.1h3.79V459H284v-5.49A1.39,1.39,0,0,1,285.42,452.1Zm3.61,6.69v-6.5h-3.61a1.2,1.2,0,0,0-1.2,1.2v5.3Z" transform="translate(-269.35 -451.47)"/><path class="cls-1" d="M289.21,458.83V460h-5.87v-1.21Zm-.18,1V459h-5.51v.85Z" transform="translate(-269.35 -451.47)"/><path class="cls-1" d="M334.38,451.58V467.3h-6.47V451.58Zm-.18,15.53V451.76h-6.11v15.35Z" transform="translate(-269.35 -451.47)"/><path class="cls-1" d="M333.27,458.37v8.68h-4.13v-8.68Zm-.18,8.5v-8.32h-3.77v8.32Z" transform="translate(-269.35 -451.47)"/><path class="cls-1" d="M328.09,459.86v6.94H324.3a1.39,1.39,0,0,1-1.39-1.38v-5.56Zm-.18.18H323.1v5.38a1.2,1.2,0,0,0,1.2,1.2h3.61Z" transform="translate(-269.35 -451.47)"/><path class="cls-1" d="M324.3,452.1h3.79V459h-5.18v-5.49A1.39,1.39,0,0,1,324.3,452.1Zm3.61,6.69v-6.5H324.3a1.2,1.2,0,0,0-1.2,1.2v5.3Z" transform="translate(-269.35 -451.47)"/><path class="cls-1" d="M328.09,458.83V460h-5.87v-1.21Zm-.18,1V459H322.4v.85Z" transform="translate(-269.35 -451.47)"/><path class="cls-1" d="M310.17,467.3V451.47h8.09V467.3Zm.15-15.64v15.45h7.78V451.66Z" transform="translate(-269.35 -451.47)"/><path class="cls-1" d="M310.58,460.46v-8.74H314v8.74Zm.15-8.55v8.37h3.15v-8.37Z" transform="translate(-269.35 -451.47)"/><path class="cls-1" d="M269.35,467.3V451.47h8.09V467.3Zm.15-15.64v15.45h7.78V451.66Z" transform="translate(-269.35 -451.47)"/><path class="cls-1" d="M269.76,460.46v-8.74h3.45v8.74Zm.15-8.55v8.37h3.15v-8.37Z" transform="translate(-269.35 -451.47)"/><rect class="cls-2" x="34.68" y="3.55" width="0.51" height="0.12"/></svg>